PathFileType	4	(X/Y/Z)	D:\TRACE\spotREDO_2-26-24\spot_baseline_4-platform.trc
DataRate	CameraRate	NumFrames	NumMarkers	Units	OrigDataRate	OrigDataStartFrame	OrigNumFrames
100.00	100.00	      69	5	mm	100.00	876	      7000
Frame#	Time	Left_Front			Right_Front			Left_Aft			Right_Aft			Post			
		X1	Y1	Z1	X2	Y2	Z2	X3	Y3	Z3	X4	Y4	Z4	X5	Y5	Z5	

876	8.750	-696.85541	-3.99186	-575.64697	718.28113	4.98951	-490.74902	-768.21893	4.87481	643.50085	801.25446	11.42344	647.80804	4.47061	741.34479	-982.92749	
877	8.760	-696.93524	-4.00156	-575.62744	718.19208	4.91695	-490.77975	-768.21802	4.82835	643.49347	801.24744	11.39239	647.79999	4.35320	741.38196	-982.92523	
878	8.770	-696.89008	-3.98804	-575.65594	718.21826	4.89358	-490.76285	-768.20734	4.81867	643.49719	801.26019	11.40092	647.79645	4.39876	741.35919	-982.92859	
879	8.780	-696.89471	-3.98484	-575.64331	718.48663	5.28822	-490.63324	-768.18707	4.83995	643.49695	801.21265	11.36606	647.81158	4.41887	741.38373	-982.93793	
880	8.790	-696.88708	-3.96389	-575.63525	718.39691	5.04997	-490.67102	-768.21820	4.89543	643.51532	801.25836	11.41179	647.81024	4.37340	741.42511	-982.86902	
881	8.800	-696.88892	-3.96944	-575.63751	718.38800	5.06199	-490.70462	-768.20776	4.88534	643.50635	801.30011	11.43486	647.84723	4.35916	741.42700	-982.84528	
882	8.810	-696.89575	-4.00371	-575.66779	718.39215	5.05963	-490.72375	-768.20148	4.85074	643.52252	801.24988	11.41627	647.82324	4.34730	741.44830	-982.84833	
883	8.820	-696.88123	-3.99520	-575.65649	718.38312	5.01532	-490.70428	-768.19525	4.84593	643.51288	801.30713	11.40493	647.78973	4.43147	741.41364	-982.82434	
884	8.830	-696.86450	-3.99626	-575.65594	718.36603	5.05729	-490.69327	-767.84137	4.04869	643.54633	801.26367	11.38340	647.79095	4.50006	741.41333	-982.81335	
885	8.840	-696.88690	-3.95724	-575.67224	718.39520	5.08046	-490.68686	-767.84106	4.12230	643.58411	801.24249	11.40835	647.82294	4.42509	741.44037	-982.79675	
886	8.850	-696.89301	-3.96520	-575.67145	718.37280	5.04459	-490.71744	-767.70105	4.22463	643.63483	801.22906	11.36863	647.80969	4.48284	741.43915	-982.88904	
887	8.860	-696.89044	-3.93186	-575.66870	718.31677	5.06743	-490.73608	-767.90430	4.22413	643.60626	801.28632	11.40409	647.81494	4.23501	741.47443	-982.87006	
888	8.870	-696.84607	-3.94182	-575.68317	718.28357	5.00773	-490.74246	-767.88458	4.19820	643.60999	801.21222	11.38013	647.83899	4.20812	741.46448	-982.93469	
889	8.880	-696.82813	-3.99055	-575.67853	718.15649	5.18126	-490.91885	-767.88947	4.17955	643.58716	801.19922	11.40102	647.81464	4.00017	741.48737	-982.95154	
890	8.890	-696.83704	-3.94447	-575.70190	718.28522	4.98566	-490.76398	-767.89423	4.21730	643.65137	801.33002	11.46034	647.83881	4.37211	741.39630	-982.94501	
891	8.900	-696.84546	-3.95543	-575.65472	718.29205	4.99348	-490.76859	-767.89978	4.22394	643.64496	801.28082	11.41466	647.80243	4.38631	741.41132	-982.90186	
892	8.910	-696.82379	-3.97843	-575.65442	718.25690	5.00597	-490.75391	-767.91516	4.28618	643.70508	801.27057	11.42893	647.85199	4.40439	741.41925	-982.87549	
893	8.920	-696.84332	-3.95962	-575.68066	718.22052	5.14030	-490.82687	-767.96509	4.32549	643.68372	801.25995	11.41287	647.82178	4.41113	741.40173	-982.89490	
894	8.930	-696.86047	-3.94800	-575.67383	718.27637	4.96350	-490.76010	-767.94006	4.32668	643.72534	801.23334	11.36874	647.84778	4.39385	741.39111	-982.85291	
895	8.940	-696.83606	-3.94976	-575.69135	718.20062	5.13936	-490.86594	-767.95935	4.41021	643.66193	801.17664	11.37138	647.83862	4.40641	741.39740	-982.86554	
896	8.950	-696.85638	-3.92145	-575.67621	718.29205	5.00859	-490.76318	-768.03381	4.46151	643.70093	801.28021	11.22384	647.53583	4.34429	741.44312	-982.83063	
897	8.960	-696.81165	-3.96585	-575.67804	718.29706	5.01499	-490.74307	-767.97357	4.42913	643.68024	801.28467	11.38797	647.83362	5.53348	741.26617	-982.81067	
898	8.970	-696.86060	-3.93001	-575.65558	718.18970	5.18323	-490.84009	-768.02509	4.49342	643.66785	801.29132	11.43331	647.83191	5.13747	741.38928	-982.83521	
899	8.980	-696.82166	-3.97134	-575.67322	718.21252	5.10315	-490.80692	-767.98224	4.50257	643.64465	801.18036	11.32635	647.81390	5.04324	741.31567	-982.86853	
900	8.990	-696.83228	-3.95866	-575.65961	718.30316	4.98588	-490.74850	-768.03491	4.54033	643.59949	801.23608	11.38036	647.81848	5.00439	741.36823	-982.88495	
901	9.000	-696.82935	-3.95016	-575.65582	718.30988	4.95301	-490.75381	-768.04242	4.51454	643.60229	801.35229	11.45836	647.84540	4.73362	741.37036	-982.87512	
902	9.010	-696.82416	-3.97164	-575.66846	718.31494	4.96876	-490.69513	-768.03784	4.52262	643.60651	801.21649	11.36993	647.81213	4.59280	741.38141	-982.83612	
903	9.020	-696.83325	-3.95443	-575.68536	718.31830	4.98223	-490.69330	-768.01227	4.52916	643.61859	801.25232	11.37988	647.82428	4.62392	741.37659	-982.89337	
904	9.030	-696.84387	-3.96275	-575.67230	718.30078	4.96508	-490.70319	-768.02173	4.53435	643.58124	801.22809	11.43159	647.82355	4.60738	741.37140	-982.89673	
905	9.040	-696.85101	-3.95762	-575.67743	718.29773	4.93687	-490.71350	-767.99677	4.54152	643.56952	801.17041	11.34151	647.81403	4.56339	741.38538	-982.87457	
906	9.050	-696.86237	-3.89314	-575.67188	718.31476	4.93730	-490.68591	-768.02863	4.49852	643.57312	801.30273	11.44689	647.85071	4.63552	741.42212	-982.90338	
907	9.060	-696.86188	-3.91811	-575.69733	718.20435	5.08308	-490.79831	-768.04242	4.54036	643.54083	801.29089	11.40223	647.80322	4.72785	741.41431	-982.90417	
908	9.070	-696.87714	-3.88847	-575.66943	718.19940	5.11014	-490.78900	-768.02533	4.50993	643.57611	801.25732	11.39961	647.82593	4.59510	741.40753	-982.86377	
909	9.080	-696.84479	-3.93234	-575.70483	718.23346	5.15608	-490.79358	-768.05042	4.56048	643.54456	801.30542	11.10676	647.46393	4.59629	741.38916	-982.92548	
910	9.090	-696.86438	-3.90181	-575.67749	718.31787	4.96563	-490.68185	-768.04956	4.53738	643.56451	801.22809	11.42017	647.81073	4.58690	741.42468	-982.87341	
911	9.100	-696.86090	-3.93627	-575.68933	718.33496	4.95498	-490.67807	-768.08179	4.54750	643.55139	801.30127	11.43826	647.82642	4.52555	741.41199	-982.86572	
912	9.110	-696.88019	-3.89406	-575.65607	718.22681	5.08679	-490.77405	-768.06201	4.54470	643.52869	801.26337	11.43769	647.81281	4.48463	741.43127	-982.83936	
913	9.120	-696.82953	-3.92561	-575.67554	718.33527	4.92319	-490.67603	-768.05371	4.56017	643.54230	801.28571	11.40823	647.81152	4.49956	741.40442	-982.87799	
914	9.130	-696.86334	-3.90974	-575.67816	718.22223	5.11190	-490.82941	-768.06708	4.56756	643.56860	801.21796	11.39908	647.83539	4.53144	741.36920	-982.89716	
915	9.140	-696.85596	-3.96027	-575.68225	718.32947	4.90822	-490.69214	-768.04315	4.56884	643.56122	801.20795	11.36584	647.83685	4.47825	741.36102	-982.87897	
916	9.150	-696.84637	-3.91632	-575.67218	718.23907	5.07041	-490.76526	-768.04510	4.58286	643.57507	801.22937	11.38764	647.82123	4.51213	741.37183	-982.89819	
917	9.160	-696.87598	-3.89613	-575.68066	718.24768	5.10168	-490.78098	-768.06299	4.57129	643.58594	801.25311	11.41517	647.84528	4.41927	741.38879	-982.90009	
918	9.170	-696.88953	-3.89079	-575.66553	718.30701	4.94389	-490.67819	-768.05591	4.59363	643.57117	801.25421	11.46005	647.83356	4.48359	741.37860	-982.90448	
919	9.180	-696.88513	-3.89604	-575.68347	718.31195	4.93363	-490.71118	-768.05688	4.57933	643.56335	801.22491	11.39084	647.83856	4.44877	741.39154	-982.92188	
920	9.190	-696.86774	-3.93250	-575.69403	718.23840	5.09963	-490.76865	-768.11768	4.64837	643.50873	801.25378	11.41675	647.81995	4.49904	741.35590	-982.91754	
921	9.200	-696.88910	-3.92559	-575.65778	718.22693	5.06244	-490.79611	-768.06207	4.59687	643.59076	801.22107	11.38167	647.79968	4.43295	741.37341	-982.87933	
922	9.210	-696.86652	-3.90885	-575.67780	718.30188	4.96119	-490.68997	-768.08911	4.62175	643.50330	801.19867	11.37096	647.75879	4.45137	741.41534	-982.84857	
923	9.220	-696.87683	-3.87273	-575.66016	718.29163	4.91760	-490.70227	-768.06146	4.62146	643.54639	801.20624	11.40656	647.80756	4.43722	741.41852	-982.84088	
924	9.230	-696.85583	-3.88577	-575.67114	718.23541	5.08139	-490.78360	-768.07855	4.58451	643.54254	801.27740	11.37519	647.78345	4.40996	741.41150	-982.81140	
925	9.240	-696.87769	-3.91264	-575.68317	718.33588	4.95087	-490.68951	-768.06641	4.58110	643.55444	801.19849	11.37281	647.83118	4.42744	741.39862	-982.83911	
926	9.250	-696.90369	-3.89357	-575.67542	718.33331	4.91927	-490.70047	-768.04053	4.59393	643.53894	801.27667	11.20767	647.58038	4.47535	741.39789	-982.85687	
927	9.260	-696.91522	-3.86154	-575.67078	718.32953	4.93425	-490.68896	-768.09918	4.62608	643.51276	801.31879	11.43037	647.83459	4.44199	741.40607	-982.89734	
928	9.270	-696.90729	-3.89185	-575.67719	718.29163	4.93802	-490.70297	-768.06860	4.60028	643.49548	801.22034	11.43270	647.81256	4.41026	741.41864	-982.86835	
929	9.280	-696.87073	-3.89987	-575.66870	718.30554	4.95164	-490.69690	-768.05719	4.59669	643.53967	801.24530	11.40792	647.80475	4.44590	741.41577	-982.88824	
930	9.290	-696.88123	-3.91245	-575.65924	718.30731	4.96028	-490.72916	-768.08807	4.59700	643.52252	801.27698	11.42942	647.81781	4.46335	741.38507	-982.86780	
931	9.300	-696.88538	-3.91646	-575.65607	718.31458	4.94910	-490.71912	-768.08661	4.61324	643.52100	801.22546	11.40478	647.81042	4.44316	741.37848	-982.87366	
932	9.310	-696.88867	-3.90271	-575.66180	718.25037	5.08332	-490.81509	-768.09064	4.60415	643.53046	801.21436	11.38754	647.80621	4.44578	741.36340	-982.89032	
933	9.320	-696.87213	-3.89606	-575.68213	718.25867	4.93870	-490.74426	-768.05469	4.60691	643.51251	801.19635	11.36136	647.80963	4.42208	741.37976	-982.90155	
934	9.330	-696.91638	-3.86357	-575.65790	718.27637	4.96289	-490.71619	-768.07770	4.63014	643.53528	801.32513	11.45861	647.83099	4.45151	741.40564	-982.86877	
935	9.340	-696.90466	-3.86511	-575.65692	718.31073	4.95459	-490.71323	-768.09094	4.58442	643.53180	801.28271	11.41030	647.83301	4.42932	741.40137	-982.86694	
936	9.350	-696.87793	-3.92720	-575.67230	718.27582	4.96317	-490.74667	-768.05792	4.58259	643.53735	801.27454	11.40930	647.82208	4.41868	741.39795	-982.86963	
937	9.360	-696.89667	-3.89698	-575.67090	718.24707	4.96219	-490.72794	-768.03680	4.60176	643.55933	801.15314	11.32678	647.79596	4.44415	741.39044	-982.83862	
938	9.370	-696.84674	-3.94193	-575.68896	718.18573	5.08004	-490.86420	-768.05939	4.58636	643.47949	801.24860	11.39810	647.80420	4.43761	741.41174	-982.82874	
939	9.380	-696.89465	-3.86789	-575.66901	718.16650	5.04600	-490.80655	-768.07709	4.60139	643.49335	801.26404	11.41200	647.84052	4.41981	741.40588	-982.85229	
940	9.390	-696.87964	-3.91688	-575.67358	718.25867	4.96518	-490.78610	-768.08630	4.58993	643.48236	801.32416	11.41783	647.79437	4.47641	741.36267	-982.90656	
941	9.400	-696.89667	-3.89563	-575.67365	718.17133	5.07378	-490.83374	-768.07776	4.60168	643.53754	801.20734	11.39727	647.80878	4.43921	741.38800	-982.86597	
942	9.410	-696.87347	-3.87818	-575.67120	718.17242	5.06084	-490.83865	-768.08105	4.60482	643.54517	801.18567	11.32681	647.77771	4.49841	741.37372	-982.84796	
943	9.420	-696.89307	-3.88490	-575.67700	718.15942	5.10651	-490.85211	-768.08936	4.64740	643.51642	801.27887	11.19213	647.50763	4.45140	741.36676	-982.87714	
944	9.430	-696.91467	-3.87258	-575.66547	718.23547	4.94753	-490.81250	-768.09967	4.63455	643.49646	801.26709	11.43843	647.83038	4.44774	741.38287	-982.89661	
